<?xml version="1.0" encoding="utf-8"?>
<!-- Generator: Adobe Illustrator 19.0.0, SVG Export Plug-In . SVG Version: 6.00 Build 0)  -->
<svg version="1.1" id="Layer_1" xmlns="http://www.w3.org/2000/svg" xmlns:xlink="http://www.w3.org/1999/xlink" x="0px" y="0px"
	 viewBox="-108 386 378.1 73.8" style="enable-background:new -108 386 378.1 73.8;" xml:space="preserve">
<g>
	<path d="M27.9,459.9c-4.2,0-7.4-3.3-7.4-7.6c0-4.2,3.1-7.6,7.4-7.6c2.7,0,4.3,0.9,5.7,2.3l-1.1,1.2c-1.2-1.2-2.6-2-4.6-2
		c-3.3,0-5.7,2.6-5.7,6.1s2.5,6.1,5.7,6.1c2,0,3.3-0.8,4.8-2.1l1.1,1.1C32.3,458.9,30.6,459.9,27.9,459.9z"/>
	<path d="M38.3,444.9H40v13.2h8.3v1.5h-9.9L38.3,444.9L38.3,444.9z"/>
	<path d="M58.7,459.9c-4.5,0-7.5-3.5-7.5-7.6c0-4.1,3-7.6,7.5-7.6s7.5,3.5,7.5,7.6S63.2,459.9,58.7,459.9z M58.7,446.2
		c-3.4,0-5.8,2.7-5.8,6c0,3.4,2.4,6.1,5.8,6.1s5.8-2.7,5.8-6C64.5,448.9,62.1,446.2,58.7,446.2z"/>
	<path d="M75.8,459.6h-1.7v-13.2h-4.9v-1.5h11.6v1.5h-4.9L75.8,459.6L75.8,459.6z"/>
	<path d="M86.9,453v6.6h-1.7v-14.7h1.7v6.5h8.5v-6.5H97v14.7h-1.7V453H86.9z"/>
	<path d="M104.7,444.9v14.7H103v-14.7H104.7z"/>
	<path d="M121.4,444.9h1.6v14.7h-1.3l-9.5-12v12h-1.6v-14.7h1.6l9.3,11.8L121.4,444.9L121.4,444.9z"/>
	<path d="M135.6,459.9c-4.6,0-7.5-3.4-7.5-7.6c0-4.1,3-7.6,7.4-7.6c2.5,0,4,0.7,5.5,2l-1.1,1.3c-1.1-1-2.4-1.7-4.5-1.7
		c-3.3,0-5.6,2.8-5.6,6c0,3.5,2.3,6.1,5.8,6.1c1.7,0,3.2-0.6,4.2-1.5v-3.6h-4.5v-1.5h6.1v5.9C140.1,458.9,138.1,459.9,135.6,459.9z"
		/>
</g>
<g>
	<rect x="-108" y="451.4" width="112.7" height="1.7"/>
	<rect x="157.4" y="451.4" width="112.6" height="1.7"/>
</g>
<g>
	<path d="M-73.3,426.7h-30.1v-18.8h10.7v1.4H-82v-2.7h-21.3v-6.7h26.6c2.2,0,3.7,0.9,4.7,2.6c0.7,1.3,1.1,3.1,1.1,5.4
		c0,1.1,0,2-0.1,2.7c-0.1,0.7-0.2,1.4-0.3,2.2c1.4,1.3,2.8,2.6,4.3,3.9c1.8,1.7,2.6,3.2,2.6,4.5c0,1.6-0.9,2.9-2.6,4
		C-68.7,426.1-70.8,426.7-73.3,426.7z M-80.8,415.9h-11.8v4h15.9L-80.8,415.9z"/>
	<path d="M-61.7,426.7v-26.9H-51v26.9H-61.7z M-34.7,426.7h-14.2V420h21.3L-34.7,426.7z"/>
	<path d="M2.3,426.7v-4h-12.9l-4.2,4h-12.7l25-24.4c1.7-1.7,4.1-2.5,7.1-2.5c2.2,0,4.2,0.5,5.8,1.6c1.7,1,2.5,2.3,2.5,3.7v9.5H2.3
		v-4.5l-6.1,5.8H13v10.7H2.3z"/>
	<path d="M17.2,406.5v-3.4c0-0.9,0.5-1.7,1.6-2.3c1.1-0.7,2.3-1,3.8-1h21.6l7.1,6.7H17.2z M44.2,426.7H22.6c-1.5,0-2.7-0.3-3.8-1
		c-1.1-0.7-1.6-1.5-1.6-2.4v-15.4h10.7V420h23.4L44.2,426.7z"/>
	<path d="M53.4,426.7v-26.9h10.7v26.9H53.4z M78.7,426.7l-12.5-12.1v-6.7l8.3-8.1h12.7l-11.8,11.4l15.9,15.4H78.7z"/>
	<path d="M93.4,426.7V420h10.7v6.7H93.4z"/>
	<path d="M135.8,426.8h-23.7c-1.5,0-2.7-0.3-3.8-1s-1.6-1.5-1.6-2.4v-3.3l19.6-13.4h-19.6l7.1-6.7h21.7c1.5,0,2.7,0.3,3.7,1
		c1,0.7,1.6,1.4,1.6,2.4v3.4l-19.6,13.4H143L135.8,426.8z"/>
	<path d="M177.7,426.7c-3,0-5.4-0.8-7.1-2.5l-14.5-14.1v16.6h-10.6v-21.6c0-1.4,0.8-2.7,2.4-3.7c1.6-1,3.6-1.5,5.9-1.5
		c3,0,5.3,0.8,7,2.5l14.5,14.1v-16.6H186v21.6c0,1.4-0.8,2.7-2.4,3.7C182,426.1,180,426.7,177.7,426.7z"/>
	<path d="M217.7,426.8H194c-1.5,0-2.7-0.3-3.8-1s-1.6-1.5-1.6-2.4v-3.3l19.6-13.4h-19.6l7.1-6.7h21.7c1.5,0,2.7,0.3,3.7,1
		c1,0.7,1.6,1.4,1.6,2.4v3.4l-19.6,13.4h21.8L217.7,426.8z"/>
	<path d="M259.6,426.7c-3,0-5.4-0.8-7.1-2.5l-14.5-14.1v16.6h-10.6v-21.6c0-1.4,0.8-2.7,2.4-3.7c1.6-1,3.6-1.5,5.9-1.5
		c3,0,5.3,0.8,7,2.5l14.5,14.1v-16.6H268v21.6c0,1.4-0.8,2.7-2.4,3.7C263.9,426.1,261.9,426.7,259.6,426.7z"/>
</g>
</svg>
